<svg width="40" height="40" viewBox="0 0 40 40" fill="none" xmlns="http://www.w3.org/2000/svg">
<path fill-rule="evenodd" clip-rule="evenodd" d="M20 14.263C21.868 14.263 22.09 14.27 22.828 14.303C23.51 14.335 23.881 14.449 24.128 14.545C24.454 14.672 24.687 14.823 24.932 15.068C25.177 15.313 25.328 15.546 25.455 15.873C25.551 16.119 25.665 16.49 25.696 17.173C25.73 17.91 25.736 18.131 25.736 20C25.736 21.868 25.73 22.09 25.696 22.828C25.665 23.51 25.551 23.881 25.456 24.128C25.328 24.454 25.176 24.687 24.932 24.932C24.7061 25.1643 24.431 25.343 24.127 25.455C23.88 25.551 23.51 25.665 22.827 25.696C22.09 25.73 21.869 25.736 20 25.736C18.131 25.736 17.91 25.73 17.172 25.696C16.49 25.665 16.12 25.551 15.872 25.456C15.5682 25.3436 15.2934 25.1645 15.068 24.932C14.8357 24.7061 14.6569 24.431 14.545 24.127C14.449 23.88 14.335 23.51 14.304 22.827C14.27 22.09 14.264 21.868 14.264 20C14.264 18.131 14.27 17.91 14.304 17.172C14.335 16.49 14.449 16.12 14.544 15.872C14.672 15.546 14.824 15.313 15.068 15.068C15.313 14.823 15.546 14.672 15.873 14.545C16.119 14.449 16.49 14.335 17.173 14.304C17.91 14.27 18.131 14.264 20 14.264M20 13.001C18.1 13.001 17.861 13.009 17.115 13.043C16.37 13.078 15.86 13.197 15.416 13.37C14.9488 13.5456 14.5257 13.821 14.176 14.177C13.8203 14.5268 13.5453 14.95 13.37 15.417C13.197 15.86 13.078 16.37 13.044 17.114C13.01 17.86 13.002 18.099 13.002 20C13.002 21.9 13.01 22.139 13.044 22.885C13.078 23.63 13.197 24.139 13.37 24.584C13.548 25.044 13.788 25.434 14.177 25.824C14.566 26.212 14.956 26.452 15.417 26.63C15.861 26.803 16.37 26.922 17.115 26.956C17.861 26.99 18.099 26.998 20 26.998C21.9 26.998 22.139 26.99 22.885 26.956C23.63 26.922 24.139 26.803 24.584 26.63C25.0511 26.4544 25.4742 26.179 25.824 25.823C26.1796 25.4732 26.4547 25.05 26.63 24.583C26.803 24.139 26.922 23.63 26.956 22.885C26.99 22.139 26.998 21.9 26.998 20C26.998 18.1 26.99 17.861 26.956 17.115C26.922 16.37 26.803 15.861 26.63 15.416C26.4544 14.9489 26.179 14.5257 25.823 14.176C25.4731 13.8203 25.05 13.5453 24.583 13.37C24.14 13.197 23.63 13.078 22.886 13.044C22.14 13.01 21.9 13.002 20 13.002" fill="#171717"/>
<path fill-rule="evenodd" clip-rule="evenodd" d="M20.0002 16.4068C19.0473 16.4068 18.1334 16.7854 17.4596 17.4592C16.7858 18.133 16.4072 19.0469 16.4072 19.9998C16.4072 20.9527 16.7858 21.8666 17.4596 22.5404C18.1334 23.2143 19.0473 23.5928 20.0002 23.5928C20.9531 23.5928 21.867 23.2143 22.5409 22.5404C23.2147 21.8666 23.5932 20.9527 23.5932 19.9998C23.5932 19.0469 23.2147 18.133 22.5409 17.4592C21.867 16.7854 20.9531 16.4068 20.0002 16.4068ZM20.0002 22.3328C19.3815 22.3328 18.7881 22.087 18.3505 21.6495C17.913 21.212 17.6672 20.6186 17.6672 19.9998C17.6672 19.3811 17.913 18.7876 18.3505 18.3501C18.7881 17.9126 19.3815 17.6668 20.0002 17.6668C20.619 17.6668 21.2124 17.9126 21.6499 18.3501C22.0874 18.7876 22.3332 19.3811 22.3332 19.9998C22.3332 20.6186 22.0874 21.212 21.6499 21.6495C21.2124 22.087 20.619 22.3328 20.0002 22.3328ZM24.5752 16.2648C24.5752 16.4876 24.4867 16.7012 24.3292 16.8588C24.1717 17.0163 23.958 17.1048 23.7352 17.1048C23.5124 17.1048 23.2988 17.0163 23.1413 16.8588C22.9837 16.7012 22.8952 16.4876 22.8952 16.2648C22.8952 16.042 22.9837 15.8284 23.1413 15.6708C23.2988 15.5133 23.5124 15.4248 23.7352 15.4248C23.958 15.4248 24.1717 15.5133 24.3292 15.6708C24.4867 15.8284 24.5752 16.042 24.5752 16.2648Z" fill="#171717"/>
<rect x="0.5" y="0.5" width="39" height="39" rx="19.5" stroke="#E5E5E5"/>
</svg>
