<svg width="20" height="20" viewBox="0 0 20 20" fill="none" xmlns="http://www.w3.org/2000/svg">
<path d="M6.66699 4.79175C6.32533 4.79175 6.04199 4.50841 6.04199 4.16675V1.66675C6.04199 1.32508 6.32533 1.04175 6.66699 1.04175C7.00866 1.04175 7.29199 1.32508 7.29199 1.66675V4.16675C7.29199 4.50841 7.00866 4.79175 6.66699 4.79175Z" fill="#171717"/>
<path d="M13.333 4.79175C12.9913 4.79175 12.708 4.50841 12.708 4.16675V1.66675C12.708 1.32508 12.9913 1.04175 13.333 1.04175C13.6747 1.04175 13.958 1.32508 13.958 1.66675V4.16675C13.958 4.50841 13.6747 4.79175 13.333 4.79175Z" fill="#171717"/>
<path d="M7.08333 12.0834C6.975 12.0834 6.86666 12.0584 6.76666 12.0168C6.65833 11.9751 6.57501 11.9167 6.49167 11.8417C6.34167 11.6834 6.25 11.4667 6.25 11.2501C6.25 11.0334 6.34167 10.8167 6.49167 10.6584C6.57501 10.5834 6.66666 10.5251 6.76666 10.4834C6.96666 10.4001 7.2 10.4001 7.4 10.4834C7.5 10.5251 7.59166 10.5834 7.67499 10.6584C7.70833 10.7001 7.74999 10.7417 7.77499 10.7834C7.80832 10.8334 7.83334 10.8834 7.85001 10.9334C7.87501 10.9834 7.89168 11.0334 7.90001 11.0834C7.90834 11.1417 7.91667 11.2001 7.91667 11.2501C7.91667 11.4667 7.82499 11.6834 7.67499 11.8417C7.59166 11.9167 7.5 11.9751 7.4 12.0168C7.3 12.0584 7.19167 12.0834 7.08333 12.0834Z" fill="#171717"/>
<path d="M10.0003 12.0832C9.89199 12.0832 9.78365 12.0583 9.68365 12.0166C9.57532 11.9749 9.492 11.9166 9.40867 11.8416C9.25867 11.6832 9.16699 11.4666 9.16699 11.2499C9.16699 11.1999 9.17532 11.1416 9.18365 11.0832C9.19198 11.0332 9.20865 10.9832 9.23365 10.9332C9.25031 10.8832 9.27534 10.8332 9.30867 10.7832C9.342 10.7416 9.37533 10.6999 9.40867 10.6583C9.717 10.3499 10.2753 10.3499 10.592 10.6583C10.6253 10.6999 10.6586 10.7416 10.692 10.7832C10.7253 10.8332 10.7503 10.8832 10.767 10.9332C10.792 10.9832 10.8087 11.0332 10.817 11.0832C10.8253 11.1416 10.8337 11.1999 10.8337 11.2499C10.8337 11.4666 10.742 11.6832 10.592 11.8416C10.4337 11.9916 10.2253 12.0832 10.0003 12.0832Z" fill="#171717"/>
<path d="M7.08333 14.9999C6.975 14.9999 6.86666 14.9749 6.76666 14.9333C6.66666 14.8916 6.57501 14.8332 6.49167 14.7582C6.34167 14.5999 6.25 14.3832 6.25 14.1666C6.25 14.1166 6.25832 14.0582 6.26666 14.0082C6.27499 13.9499 6.29166 13.8999 6.31666 13.8499C6.33332 13.7999 6.35834 13.7499 6.39168 13.6999C6.41668 13.6582 6.45834 13.6166 6.49167 13.5749C6.57501 13.4999 6.66666 13.4416 6.76666 13.3999C6.96666 13.3166 7.2 13.3166 7.4 13.3999C7.5 13.4416 7.59166 13.4999 7.67499 13.5749C7.70833 13.6166 7.74999 13.6582 7.77499 13.6999C7.80832 13.7499 7.83334 13.7999 7.85001 13.8499C7.87501 13.8999 7.89168 13.9499 7.90001 14.0082C7.90834 14.0582 7.91667 14.1166 7.91667 14.1666C7.91667 14.3832 7.82499 14.5999 7.67499 14.7582C7.59166 14.8332 7.5 14.8916 7.4 14.9333C7.3 14.9749 7.19167 14.9999 7.08333 14.9999Z" fill="#171717"/>
<path d="M17.0837 8.19995H2.91699C2.57533 8.19995 2.29199 7.91662 2.29199 7.57495C2.29199 7.23328 2.57533 6.94995 2.91699 6.94995H17.0837C17.4253 6.94995 17.7087 7.23328 17.7087 7.57495C17.7087 7.91662 17.4253 8.19995 17.0837 8.19995Z" fill="#171717"/>
<path d="M13.1833 18.9833C12.8666 18.9833 12.5666 18.8667 12.35 18.65C12.0916 18.3917 11.975 18.0167 12.0333 17.625L12.1916 16.5C12.2333 16.2083 12.4083 15.8583 12.6166 15.65L15.5666 12.7C15.9666 12.3 16.3583 12.0917 16.7833 12.05C17.3083 12 17.8166 12.2167 18.3 12.7C18.8083 13.2083 19.4916 14.2417 18.3 15.4333L15.35 18.3833C15.1416 18.5917 14.7916 18.7667 14.5 18.8083L13.375 18.9667C13.3083 18.975 13.25 18.9833 13.1833 18.9833ZM16.925 13.2917C16.9166 13.2917 16.9083 13.2917 16.9 13.2917C16.7833 13.3 16.625 13.4083 16.45 13.5833L13.5 16.5333C13.475 16.5583 13.4333 16.6417 13.4333 16.675L13.2833 17.7167L14.325 17.5667C14.3583 17.5583 14.4416 17.5167 14.4666 17.4917L17.4166 14.5417C17.7833 14.175 17.8333 13.9917 17.4166 13.575C17.2833 13.45 17.0916 13.2917 16.925 13.2917Z" fill="#171717"/>
<path d="M17.4338 16.0415C17.3755 16.0415 17.3171 16.0332 17.2671 16.0165C16.1671 15.7082 15.2922 14.8332 14.9838 13.7332C14.8922 13.3999 15.0838 13.0582 15.4171 12.9582C15.7505 12.8665 16.0921 13.0582 16.1921 13.3915C16.3838 14.0749 16.9255 14.6165 17.6088 14.8082C17.9421 14.8999 18.1338 15.2499 18.0421 15.5832C17.9588 15.8582 17.7088 16.0415 17.4338 16.0415Z" fill="#171717"/>
<path d="M10 18.9584H6.66667C3.625 18.9584 1.875 17.2084 1.875 14.1667V7.08341C1.875 4.04175 3.625 2.29175 6.66667 2.29175H13.3333C16.375 2.29175 18.125 4.04175 18.125 7.08341V10.0001C18.125 10.3417 17.8417 10.6251 17.5 10.6251C17.1583 10.6251 16.875 10.3417 16.875 10.0001V7.08341C16.875 4.70008 15.7167 3.54175 13.3333 3.54175H6.66667C4.28333 3.54175 3.125 4.70008 3.125 7.08341V14.1667C3.125 16.5501 4.28333 17.7084 6.66667 17.7084H10C10.3417 17.7084 10.625 17.9917 10.625 18.3334C10.625 18.6751 10.3417 18.9584 10 18.9584Z" fill="#171717"/>
</svg>
