<svg width="20" height="20" viewBox="0 0 20 20" fill="none" xmlns="http://www.w3.org/2000/svg">
<path fill-rule="evenodd" clip-rule="evenodd" d="M9.78185 1.66675C14.2568 1.66675 17.8969 5.30675 17.8969 9.78175C17.8969 11.893 17.0866 13.8186 15.7607 15.2638L18.3697 17.8673C18.6139 18.1115 18.6147 18.5065 18.3705 18.7507C18.2488 18.874 18.088 18.9348 17.928 18.9348C17.7689 18.9348 17.6088 18.874 17.4863 18.7523L14.8459 16.1193C13.4569 17.2316 11.6957 17.8976 9.78185 17.8976C5.30685 17.8976 1.66602 14.2567 1.66602 9.78175C1.66602 5.30675 5.30685 1.66675 9.78185 1.66675ZM9.78185 2.91675C5.99602 2.91675 2.91602 5.99591 2.91602 9.78175C2.91602 13.5676 5.99602 16.6476 9.78185 16.6476C13.5668 16.6476 16.6469 13.5676 16.6469 9.78175C16.6469 5.99591 13.5668 2.91675 9.78185 2.91675Z" fill="#171717"/>
</svg>
