<svg width="20" height="20" viewBox="0 0 20 20" fill="none" xmlns="http://www.w3.org/2000/svg">
<path d="M14.6836 8.0166H10.3086C9.96693 8.0166 9.68359 7.73327 9.68359 7.3916C9.68359 7.04993 9.96693 6.7666 10.3086 6.7666H14.6836C15.0253 6.7666 15.3086 7.04993 15.3086 7.3916C15.3086 7.73327 15.0336 8.0166 14.6836 8.0166Z" fill="#737373"/>
<path d="M5.93346 8.65002C5.77513 8.65002 5.6168 8.59168 5.4918 8.46668L4.8668 7.84168C4.62513 7.60002 4.62513 7.20002 4.8668 6.95835C5.10846 6.71668 5.50846 6.71668 5.75013 6.95835L5.93346 7.14168L7.3668 5.70835C7.60846 5.46668 8.00846 5.46668 8.25013 5.70835C8.4918 5.95002 8.4918 6.35002 8.25013 6.59168L6.37513 8.46668C6.25846 8.58335 6.10013 8.65002 5.93346 8.65002Z" fill="#737373"/>
<path d="M14.6836 13.8501H10.3086C9.96693 13.8501 9.68359 13.5668 9.68359 13.2251C9.68359 12.8834 9.96693 12.6001 10.3086 12.6001H14.6836C15.0253 12.6001 15.3086 12.8834 15.3086 13.2251C15.3086 13.5668 15.0336 13.8501 14.6836 13.8501Z" fill="#737373"/>
<path d="M5.93346 14.4833C5.77513 14.4833 5.6168 14.4249 5.4918 14.2999L4.8668 13.6749C4.62513 13.4333 4.62513 13.0333 4.8668 12.7916C5.10846 12.5499 5.50846 12.5499 5.75013 12.7916L5.93346 12.9749L7.3668 11.5416C7.60846 11.2999 8.00846 11.2999 8.25013 11.5416C8.4918 11.7833 8.4918 12.1833 8.25013 12.4249L6.37513 14.2999C6.25846 14.4166 6.10013 14.4833 5.93346 14.4833Z" fill="#737373"/>
<path d="M12.5003 18.9584H7.50033C2.97533 18.9584 1.04199 17.0251 1.04199 12.5001V7.50008C1.04199 2.97508 2.97533 1.04175 7.50033 1.04175H12.5003C17.0253 1.04175 18.9587 2.97508 18.9587 7.50008V12.5001C18.9587 17.0251 17.0253 18.9584 12.5003 18.9584ZM7.50033 2.29175C3.65866 2.29175 2.29199 3.65841 2.29199 7.50008V12.5001C2.29199 16.3417 3.65866 17.7084 7.50033 17.7084H12.5003C16.342 17.7084 17.7087 16.3417 17.7087 12.5001V7.50008C17.7087 3.65841 16.342 2.29175 12.5003 2.29175H7.50033Z" fill="#737373"/>
</svg>
