<svg width="20" height="20" viewBox="0 0 20 20" fill="none" xmlns="http://www.w3.org/2000/svg">
<path d="M6.66602 4.79175C6.32435 4.79175 6.04102 4.50841 6.04102 4.16675V1.66675C6.04102 1.32508 6.32435 1.04175 6.66602 1.04175C7.00768 1.04175 7.29102 1.32508 7.29102 1.66675V4.16675C7.29102 4.50841 7.00768 4.79175 6.66602 4.79175Z" fill="#A3A3A3"/>
<path d="M13.334 4.79175C12.9923 4.79175 12.709 4.50841 12.709 4.16675V1.66675C12.709 1.32508 12.9923 1.04175 13.334 1.04175C13.6757 1.04175 13.959 1.32508 13.959 1.66675V4.16675C13.959 4.50841 13.6757 4.79175 13.334 4.79175Z" fill="#A3A3A3"/>
<path d="M7.08333 12.0832C6.86667 12.0832 6.65 11.9916 6.49167 11.8416C6.34167 11.6832 6.25 11.4749 6.25 11.2499C6.25 11.1416 6.275 11.0332 6.31667 10.9332C6.35833 10.8332 6.41667 10.7416 6.49167 10.6583C6.8 10.3499 7.35833 10.3499 7.675 10.6583C7.825 10.8166 7.91667 11.0332 7.91667 11.2499C7.91667 11.2999 7.90834 11.3583 7.9 11.4166C7.89167 11.4666 7.875 11.5166 7.85 11.5666C7.83333 11.6166 7.80833 11.6666 7.775 11.7166C7.74167 11.7582 7.70833 11.7999 7.675 11.8416C7.51667 11.9916 7.3 12.0832 7.08333 12.0832Z" fill="#A3A3A3"/>
<path d="M9.99935 12.0834C9.89102 12.0834 9.78268 12.0584 9.68268 12.0168C9.57435 11.9751 9.49102 11.9168 9.40768 11.8418C9.25768 11.6834 9.16602 11.4751 9.16602 11.2501C9.16602 11.1418 9.19102 11.0334 9.23268 10.9334C9.27435 10.8334 9.33268 10.7418 9.40768 10.6584C9.49102 10.5834 9.57435 10.5251 9.68268 10.4834C9.99102 10.3584 10.3577 10.4251 10.591 10.6584C10.741 10.8168 10.8327 11.0334 10.8327 11.2501C10.8327 11.3001 10.8244 11.3584 10.816 11.4168C10.8077 11.4668 10.791 11.5168 10.766 11.5668C10.7493 11.6168 10.7243 11.6668 10.691 11.7168C10.666 11.7584 10.6243 11.8001 10.591 11.8418C10.4327 11.9918 10.216 12.0834 9.99935 12.0834Z" fill="#A3A3A3"/>
<path d="M7.08333 15.0001C6.975 15.0001 6.86667 14.9752 6.76667 14.9335C6.65834 14.8918 6.56667 14.8335 6.49167 14.7585C6.41667 14.6835 6.35833 14.5918 6.31667 14.4835C6.275 14.3835 6.25 14.2751 6.25 14.1668C6.25 14.0585 6.275 13.9501 6.31667 13.8501C6.35833 13.7418 6.41667 13.6502 6.49167 13.5752C6.56667 13.5002 6.65834 13.4418 6.76667 13.4001C6.96667 13.3168 7.2 13.3085 7.4 13.4001C7.50833 13.4418 7.6 13.5002 7.675 13.5752C7.75 13.6502 7.80833 13.7418 7.85 13.8501C7.89166 13.9501 7.91667 14.0585 7.91667 14.1668C7.91667 14.2751 7.89166 14.3835 7.85 14.4835C7.80833 14.5918 7.75 14.6835 7.675 14.7585C7.6 14.8335 7.50833 14.8918 7.4 14.9335C7.3 14.9752 7.19167 15.0001 7.08333 15.0001Z" fill="#A3A3A3"/>
<path d="M17.0827 8.19995H2.91602C2.57435 8.19995 2.29102 7.91662 2.29102 7.57495C2.29102 7.23328 2.57435 6.94995 2.91602 6.94995H17.0827C17.4243 6.94995 17.7077 7.23328 17.7077 7.57495C17.7077 7.91662 17.4243 8.19995 17.0827 8.19995Z" fill="#A3A3A3"/>
<path d="M14.9993 19.7917C14.0243 19.7917 13.0994 19.4417 12.391 18.8C12.091 18.55 11.8243 18.2333 11.6077 17.8667C11.241 17.2667 11.041 16.5583 11.041 15.8333C11.041 13.65 12.816 11.875 14.9993 11.875C16.1327 11.875 17.216 12.3667 17.966 13.2167C18.6077 13.95 18.9577 14.875 18.9577 15.8333C18.9577 16.5583 18.7577 17.2667 18.3827 17.875C17.6827 19.0583 16.3827 19.7917 14.9993 19.7917ZM14.9993 13.125C13.5077 13.125 12.291 14.3417 12.291 15.8333C12.291 16.325 12.4244 16.8083 12.6827 17.225C12.8244 17.475 13.0077 17.6833 13.2077 17.8583C13.7077 18.3083 14.3327 18.5417 14.9993 18.5417C15.9577 18.5417 16.8243 18.05 17.316 17.2333C17.5743 16.8083 17.7077 16.3333 17.7077 15.8333C17.7077 15.1833 17.466 14.55 17.0327 14.0417C16.516 13.4583 15.7743 13.125 14.9993 13.125Z" fill="#A3A3A3"/>
<path d="M14.5241 17.2834C14.3658 17.2834 14.2074 17.225 14.0824 17.1L13.2574 16.275C13.0158 16.0334 13.0158 15.6334 13.2574 15.3917C13.4991 15.15 13.8991 15.15 14.1408 15.3917L14.5408 15.7917L15.8741 14.5584C16.1241 14.325 16.5241 14.3417 16.7574 14.5917C16.9908 14.8417 16.9741 15.2417 16.7241 15.475L14.9491 17.1167C14.8241 17.225 14.6741 17.2834 14.5241 17.2834Z" fill="#A3A3A3"/>
<path d="M12.8083 18.9584H6.66667C3.625 18.9584 1.875 17.2084 1.875 14.1667V7.08341C1.875 4.04175 3.625 2.29175 6.66667 2.29175H13.3333C16.375 2.29175 18.125 4.04175 18.125 7.08341V13.6334C18.125 13.8917 17.9667 14.1251 17.7167 14.2167C17.475 14.3084 17.2 14.2418 17.025 14.0418C16.5083 13.4584 15.7667 13.1251 14.9917 13.1251C13.5 13.1251 12.2833 14.3417 12.2833 15.8334C12.2833 16.3251 12.4167 16.8084 12.675 17.2251C12.8167 17.4751 13 17.6834 13.2 17.8584C13.4 18.0251 13.475 18.3001 13.3833 18.5501C13.3083 18.7918 13.075 18.9584 12.8083 18.9584ZM6.66667 3.54175C4.28333 3.54175 3.125 4.70008 3.125 7.08341V14.1667C3.125 16.5501 4.28333 17.7084 6.66667 17.7084H11.5167C11.2083 17.1417 11.0417 16.5001 11.0417 15.8334C11.0417 13.6501 12.8167 11.8751 15 11.8751C15.6583 11.8751 16.3083 12.0418 16.875 12.3501V7.08341C16.875 4.70008 15.7167 3.54175 13.3333 3.54175H6.66667Z" fill="#A3A3A3"/>
</svg>
