<svg width="129" height="40" viewBox="0 0 129 40" fill="none" xmlns="http://www.w3.org/2000/svg">
<path d="M7.71615 31.2362L11.9098 25.4641C12.537 24.6009 12.713 23.4896 12.3833 22.4748C12.0535 21.46 11.2579 20.6644 10.2431 20.3347L3.44531 18.126" stroke="#171717" stroke-width="2" stroke-linecap="round" stroke-linejoin="round"/>
<path d="M5.50879 11.7868L12.3037 13.9945C13.3185 14.3242 14.4298 14.1481 15.293 13.521C16.1562 12.8938 16.667 11.8913 16.667 10.8243V3.66821" stroke="#171717" stroke-width="2" stroke-linecap="round" stroke-linejoin="round"/>
<path d="M34.4913 11.7866L27.6964 13.9945C26.6816 14.3242 25.5703 14.1482 24.7071 13.521C23.8438 12.8938 23.333 11.8913 23.333 10.8243V3.66821" stroke="#171717" stroke-width="2" stroke-linecap="round" stroke-linejoin="round"/>
<path d="M32.2834 31.2362L28.0898 25.4641C27.4626 24.6009 27.2866 23.4896 27.6163 22.4748C27.946 21.46 28.7416 20.6644 29.7564 20.3347L36.5542 18.126" stroke="#171717" stroke-width="2" stroke-linecap="round" stroke-linejoin="round"/>
<path d="M13.1055 35.1608L17.3034 29.3828C17.9306 28.5196 18.9331 28.0088 20.0002 28.0088C21.0672 28.0088 22.0697 28.5196 22.6969 29.3828L26.8949 35.1608" stroke="#171717" stroke-width="2" stroke-linecap="round" stroke-linejoin="round"/>
<circle cx="19.9997" cy="19.9999" r="16.6667" stroke="#171717" stroke-width="2" stroke-linecap="round" stroke-linejoin="round"/>
<circle cx="20.0003" cy="20.0001" r="3.33333" stroke="#171717" stroke-width="2" stroke-linecap="round" stroke-linejoin="round"/>
<path d="M56.988 29.36C55.26 29.36 53.78 28.984 52.548 28.232C51.316 27.472 50.368 26.416 49.704 25.064C49.048 23.712 48.72 22.144 48.72 20.36C48.72 18.576 49.048 17.008 49.704 15.656C50.368 14.304 51.316 13.252 52.548 12.5C53.78 11.74 55.26 11.36 56.988 11.36C58.98 11.36 60.64 11.86 61.968 12.86C63.296 13.852 64.228 15.192 64.764 16.88L61.848 17.684C61.512 16.556 60.94 15.676 60.132 15.044C59.324 14.404 58.276 14.084 56.988 14.084C55.828 14.084 54.86 14.344 54.084 14.864C53.316 15.384 52.736 16.116 52.344 17.06C51.96 17.996 51.764 19.096 51.756 20.36C51.756 21.624 51.948 22.728 52.332 23.672C52.724 24.608 53.308 25.336 54.084 25.856C54.86 26.376 55.828 26.636 56.988 26.636C58.276 26.636 59.324 26.316 60.132 25.676C60.94 25.036 61.512 24.156 61.848 23.036L64.764 23.84C64.228 25.528 63.296 26.872 61.968 27.872C60.64 28.864 58.98 29.36 56.988 29.36ZM71.0228 29.36C70.0868 29.36 69.2948 29.184 68.6468 28.832C67.9988 28.472 67.5068 27.996 67.1708 27.404C66.8428 26.812 66.6788 26.16 66.6788 25.448C66.6788 24.824 66.7828 24.264 66.9908 23.768C67.1988 23.264 67.5188 22.832 67.9508 22.472C68.3828 22.104 68.9428 21.804 69.6308 21.572C70.1508 21.404 70.7588 21.252 71.4548 21.116C72.1588 20.98 72.9188 20.856 73.7348 20.744C74.5588 20.624 75.4188 20.496 76.3148 20.36L75.2828 20.948C75.2908 20.052 75.0908 19.392 74.6828 18.968C74.2748 18.544 73.5868 18.332 72.6188 18.332C72.0348 18.332 71.4708 18.468 70.9268 18.74C70.3828 19.012 70.0028 19.48 69.7868 20.144L67.1468 19.316C67.4668 18.22 68.0748 17.34 68.9708 16.676C69.8748 16.012 71.0908 15.68 72.6188 15.68C73.7708 15.68 74.7828 15.868 75.6548 16.244C76.5348 16.62 77.1868 17.236 77.6108 18.092C77.8428 18.548 77.9828 19.016 78.0308 19.496C78.0788 19.968 78.1028 20.484 78.1028 21.044V29H75.5708V26.192L75.9908 26.648C75.4068 27.584 74.7228 28.272 73.9388 28.712C73.1628 29.144 72.1908 29.36 71.0228 29.36ZM71.5988 27.056C72.2548 27.056 72.8148 26.94 73.2788 26.708C73.7428 26.476 74.1108 26.192 74.3828 25.856C74.6628 25.52 74.8508 25.204 74.9468 24.908C75.0988 24.54 75.1828 24.12 75.1988 23.648C75.2228 23.168 75.2348 22.78 75.2348 22.484L76.1228 22.748C75.2508 22.884 74.5028 23.004 73.8788 23.108C73.2548 23.212 72.7188 23.312 72.2708 23.408C71.8228 23.496 71.4268 23.596 71.0828 23.708C70.7468 23.828 70.4628 23.968 70.2308 24.128C69.9988 24.288 69.8188 24.472 69.6908 24.68C69.5708 24.888 69.5108 25.132 69.5108 25.412C69.5108 25.732 69.5908 26.016 69.7508 26.264C69.9108 26.504 70.1428 26.696 70.4468 26.84C70.7588 26.984 71.1428 27.056 71.5988 27.056ZM81.2269 29V16.04H83.7829V19.196L83.4709 18.788C83.6309 18.356 83.8429 17.964 84.1069 17.612C84.3789 17.252 84.7029 16.956 85.0789 16.724C85.3989 16.508 85.7509 16.34 86.1349 16.22C86.5269 16.092 86.9269 16.016 87.3349 15.992C87.7429 15.96 88.1389 15.976 88.5229 16.04V18.74C88.1389 18.628 87.6949 18.592 87.1909 18.632C86.6949 18.672 86.2469 18.812 85.8469 19.052C85.4469 19.268 85.1189 19.544 84.8629 19.88C84.6149 20.216 84.4309 20.6 84.3109 21.032C84.1909 21.456 84.1309 21.916 84.1309 22.412V29H81.2269ZM96.4704 29.36C95.1584 29.36 94.0064 29.076 93.0144 28.508C92.0224 27.94 91.2464 27.152 90.6864 26.144C90.1344 25.136 89.8584 23.976 89.8584 22.664C89.8584 21.248 90.1304 20.02 90.6744 18.98C91.2184 17.932 91.9744 17.12 92.9424 16.544C93.9104 15.968 95.0304 15.68 96.3024 15.68C97.6464 15.68 98.7864 15.996 99.7224 16.628C100.666 17.252 101.366 18.136 101.822 19.28C102.278 20.424 102.45 21.772 102.338 23.324H99.4704V22.268C99.4624 20.86 99.2144 19.832 98.7264 19.184C98.2384 18.536 97.4704 18.212 96.4224 18.212C95.2384 18.212 94.3584 18.58 93.7824 19.316C93.2064 20.044 92.9184 21.112 92.9184 22.52C92.9184 23.832 93.2064 24.848 93.7824 25.568C94.3584 26.288 95.1984 26.648 96.3024 26.648C97.0144 26.648 97.6264 26.492 98.1384 26.18C98.6584 25.86 99.0584 25.4 99.3384 24.8L102.194 25.664C101.698 26.832 100.93 27.74 99.8904 28.388C98.8584 29.036 97.7184 29.36 96.4704 29.36ZM92.0064 23.324V21.14H100.922V23.324H92.0064ZM113.628 29V22.76C113.628 22.352 113.6 21.9 113.544 21.404C113.488 20.908 113.356 20.432 113.148 19.976C112.948 19.512 112.644 19.132 112.236 18.836C111.836 18.54 111.292 18.392 110.604 18.392C110.236 18.392 109.872 18.452 109.512 18.572C109.152 18.692 108.824 18.9 108.528 19.196C108.24 19.484 108.008 19.884 107.832 20.396C107.656 20.9 107.568 21.548 107.568 22.34L105.852 21.608C105.852 20.504 106.064 19.504 106.488 18.608C106.92 17.712 107.552 17 108.384 16.472C109.216 15.936 110.24 15.668 111.456 15.668C112.416 15.668 113.208 15.828 113.832 16.148C114.456 16.468 114.952 16.876 115.32 17.372C115.688 17.868 115.96 18.396 116.136 18.956C116.312 19.516 116.424 20.048 116.472 20.552C116.528 21.048 116.556 21.452 116.556 21.764V29H113.628ZM104.64 29V16.04H107.22V20.06H107.568V29H104.64ZM127.284 29C126.428 29.16 125.588 29.228 124.764 29.204C123.948 29.188 123.216 29.04 122.568 28.76C121.92 28.472 121.428 28.02 121.092 27.404C120.796 26.844 120.64 26.272 120.624 25.688C120.608 25.104 120.6 24.444 120.6 23.708V12.44H123.48V23.54C123.48 24.06 123.484 24.516 123.492 24.908C123.508 25.3 123.592 25.62 123.744 25.868C124.032 26.348 124.492 26.616 125.124 26.672C125.756 26.728 126.476 26.696 127.284 26.576V29ZM118.248 18.308V16.04H127.284V18.308H118.248Z" fill="#171717"/>
</svg>
