<svg width="1440" height="983" viewBox="0 0 1440 983" fill="none" xmlns="http://www.w3.org/2000/svg">
<g clip-path="url(#clip0_80_3916)">
<g opacity="0.16">
<path d="M520.449 -352.179C470.788 -481.934 225.104 -546.009 265.647 -287.656C272.295 -245.295 272.963 -172.353 265.647 -83.5675C258.945 -2.23489 127.739 42.2682 87.4633 147.359C24.2991 312.172 260.465 427.048 222.883 513.687C173.659 627.163 22.9386 676.398 -60.4291 738.48C-138.911 796.924 -188.901 890.7 -208.096 987.112C-241.77 1156.26 -180.66 1333.51 -12.3195 1342.33C71.9506 1346.74 183.092 1308.95 322.665 1206.8C385.069 1161.13 440.096 1123.49 489.001 1093.05C614.873 1014.72 581.032 1200.01 730.706 1206.8C815.99 1210.67 905.064 1050.7 972.493 1136.03C1020.44 1196.7 1075.46 1270.31 1154.03 1346C1292.02 1478.91 1464.55 1498.48 1488.95 1308.79C1500.47 1219.24 1478.98 1083.07 1405.27 890.168C1358.1 766.725 1475.43 771.076 1488.95 612.889C1502.47 454.701 1391.92 381.751 1471.95 316.279L1473.55 314.968C1534.55 265.071 1599.6 211.854 1635.13 109.638C1665.73 21.5904 1662.81 -65.6154 1635.13 -132.624C1605.51 -204.339 1547.53 -252.92 1471.95 -254.643C1396.11 -256.372 1302.56 -210.927 1202.14 -94.3399C1135.94 -17.4723 1091.1 -196.331 972.493 -178.048C853.883 -159.764 837.397 12.8126 766.343 -37.2415C642.915 -124.189 578.611 -200.214 520.449 -352.179Z" stroke="#171717" stroke-width="0.5"/>
<path d="M760.207 355.829C752.699 335.964 717.711 341.178 715.94 362.707C713.924 387.22 726.214 419.164 724.793 443.735C722.05 491.177 705.426 504.682 672.324 529.687C660.46 538.634 652.902 552.992 650 567.752C644.91 593.648 654.148 620.785 679.598 622.136C692.337 622.812 709.139 617.025 730.24 601.386C739.674 594.393 747.993 588.631 755.386 583.971C787.571 562.063 817.525 579.23 828.48 590.551C835.728 599.84 844.046 611.11 855.925 622.697C876.786 643.046 908.376 640.38 906.557 617C903.986 583.971 848.053 460.684 906.557 439.186C933.733 429.2 932.84 406.58 928.656 396.321C924.177 385.342 915.412 377.904 903.986 377.64C892.522 377.375 873.53 396.321 863.198 402.182C825.056 423.82 791.023 435.005 760.207 355.829Z" stroke="#171717" stroke-width="0.5"/>
<path d="M305.233 -230.753C269.278 -465.729 493.622 -407.154 539.116 -288.311C594.815 -143.019 656.392 -74.9243 772.1 2.15436C837.174 47.388 852.833 -110.043 961.355 -127.154C1069.88 -144.265 1111.34 17.8938 1172.05 -51.966C1264.39 -157.918 1350.25 -198.555 1419.61 -195.991C1488.52 -193.961 1541.35 -149.058 1568.04 -83.1307C1592.96 -21.4804 1595.02 58.5255 1565.95 139.012C1528.01 234.682 1473.23 294.231 1417.59 342.92C1344.92 403.489 1444.74 470.389 1431.51 614.274C1418.28 758.159 1310.41 753.804 1352.34 865.093C1418.27 1039.39 1437.04 1162.15 1425.91 1242.71C1403.22 1414.62 1245.43 1396.19 1118.79 1275.11C1046.17 1206.04 994.728 1139.24 949.664 1085.08C887.682 1007.94 805.937 1153.86 727.535 1150.98C590.489 1145.51 620.39 977.572 505.178 1049.08C459.944 1077.04 409.239 1111.37 351.92 1152.86C222.694 1245.59 120.801 1277.49 44.6505 1271.14C-108.268 1262.45 -163.589 1100.67 -132.632 946.33C-114.839 858.1 -68.9442 772.332 2.95267 718.803C81.7774 660.11 220.33 614.135 265.334 506.699C299.569 426.834 84.6026 321.136 141.788 170.046C178.164 73.2432 297.219 31.5145 303.405 -43.5239C310.138 -125.202 310.37 -192.11 305.233 -230.753Z" stroke="#171717" stroke-width="0.5"/>
<path d="M348.805 -170.948C317.377 -382.129 520.782 -329.16 562.191 -221.442C615.533 -83.0994 674.501 -23.0539 782.704 44.0231C841.914 84.3565 856.776 -57.6468 955.404 -73.5536C1054.03 -89.4603 1092.19 55.7103 1147.53 -7.0173C1231.96 -102.146 1310.29 -137.904 1373.29 -134.512C1435.65 -132.18 1483.42 -91.0372 1507.22 -31.0158C1529.43 25.1642 1530.63 97.8261 1503.04 170.606C1462.93 258.66 1419.16 324.373 1369.24 371.378C1303.79 426.935 1393.07 487.664 1380.1 616.99C1367.13 746.316 1268.51 741.966 1305.28 840.905C1363.54 996.288 1379.64 1105.42 1368.86 1176.85C1347.85 1330.68 1204.51 1313.42 1088.99 1204.38C1022.2 1142.06 974.239 1082.18 931.974 1034.63C875.327 965.815 800.763 1097.44 729.102 1095.54C604.438 1091.41 630.449 941.114 525.691 1005.66C484.044 1031.11 437.569 1062.06 385.231 1099.29C266.117 1182.44 173.29 1208.39 105.124 1200.12C-32.6457 1191.59 -82.2757 1045.57 -53.9785 906.307C-37.5545 826.418 4.32696 748.812 69.7682 700.293C144.198 645.101 270.834 602.471 311.699 501.275C342.646 428.33 148.497 332.001 199.805 194.907C232.346 106.567 339.461 67.6906 345.141 -0.917236C351.303 -75.3402 352.44 -136.093 348.805 -170.948Z" stroke="#171717" stroke-width="0.5"/>
<path d="M391.55 -116.937C364.716 -305.161 546.763 -257.588 584.003 -160.567C634.885 -28.6283 691.132 23.607 791.614 80.9493C844.84 116.543 858.877 -10.5966 947.409 -25.362C1035.94 -40.1274 1070.72 88.6315 1120.57 32.787C1196.92 -51.8963 1267.55 -82.9176 1324.07 -78.684C1379.75 -76.0406 1422.37 -38.4951 1443.23 15.8582C1462.69 66.7907 1463.01 132.397 1436.96 197.758C1394.73 278.545 1362.09 350.68 1317.99 396.186C1259.89 446.951 1338.44 501.749 1325.76 617.03C1313.07 732.31 1223.92 727.948 1255.44 814.929C1305.92 952.019 1319.3 1047.96 1308.9 1110.54C1289.6 1246.9 1161.01 1230.75 1056.86 1133.32C996.025 1077.49 951.637 1024.3 912.253 983.164C861.057 922.399 793.826 1040.25 729.052 1039.33C617.025 1036.52 639.09 903.268 545 961.113C507.025 984.138 464.874 1011.85 417.624 1044.96C308.862 1118.85 225.29 1138.97 165.25 1128.74C42.9162 1120.33 -0.918961 989.496 24.66 864.758C39.682 792.893 77.465 723.142 136.317 679.442C206.206 627.531 320.667 588.077 357.309 492.722C384.906 426.408 211.974 339.066 257.298 215.424C285.935 135.198 380.888 99.0189 386.052 36.5698C391.63 -30.8929 393.671 -85.7321 391.55 -116.937Z" stroke="#171717" stroke-width="0.5"/>
<path d="M433.459 -59.7517C411.277 -225.003 571.563 -182.827 604.551 -96.5083C652.855 29.0556 706.248 73.4704 798.781 121.062C845.904 151.911 859.082 39.6437 937.322 26.0182C1015.56 12.3927 1046.89 124.726 1091.13 75.7699C1159.24 1.53973 1222 -24.7381 1271.92 -19.6582C1320.79 -16.7012 1358.17 17.2479 1376.05 65.9324C1392.7 111.617 1392.16 170.165 1367.7 228.106C1323.47 301.629 1302.01 380.241 1263.83 424.261C1213.22 470.235 1280.87 519.101 1268.5 620.326C1256.13 721.552 1176.64 717.176 1202.85 792.187C1245.42 910.964 1256.06 993.696 1246.07 1047.42C1228.53 1166.3 1114.96 1151.24 1022.41 1065.43C967.671 1016.11 926.96 969.608 890.547 934.898C844.917 882.19 785.169 986.256 727.426 986.323C628.285 984.827 646.359 868.642 563.145 919.783C528.927 940.387 491.195 964.846 449.138 993.84C350.973 1058.47 276.841 1072.74 225.06 1060.54C118.429 1052.25 80.4847 936.605 103.288 826.4C116.874 762.562 150.475 700.668 202.606 661.788C267.793 613.151 369.824 576.871 402.163 487.341C426.347 427.656 275.014 349.303 314.256 239.116C338.927 167.003 421.509 133.519 426.145 77.2276C431.126 16.7256 434.065 -32.1982 433.459 -59.7517Z" stroke="#171717" stroke-width="0.5"/>
<path d="M475.347 -0.192253C457.807 -141.273 596.34 -104.802 625.074 -29.8147C670.784 88.4278 721.303 124.706 805.868 162.212C846.889 188.094 859.204 91.5151 927.153 79.1308C995.103 66.7464 1022.97 161.843 1061.61 120.129C1121.47 56.8899 1176.37 35.5424 1219.68 41.4268C1261.76 44.6735 1293.89 74.7766 1308.8 117.436C1322.65 157.538 1321.24 208.6 1298.39 258.698C1252.19 324.415 1241.86 408.878 1209.6 451.077C1166.47 491.921 1223.22 534.499 1211.18 620.935C1199.13 707.372 1129.3 703.016 1150.21 765.518C1184.9 865.129 1192.8 934.057 1183.22 978.537C1167.44 1079.07 1068.9 1065.23 987.938 991.665C939.306 949.199 902.279 909.728 868.847 881.69C828.782 837.419 776.518 926.945 725.808 927.991C639.551 927.823 653.642 829.541 581.303 873.604C550.846 891.638 517.534 912.668 480.672 937.336C393.113 992.242 328.421 1000.56 284.89 986.498C193.953 978.381 161.894 878.775 181.922 783.904C194.07 728.558 223.487 674.972 268.899 641.196C329.366 596.197 418.964 563.358 447 480.325C467.774 427.708 338.028 358.916 371.192 262.99C391.901 199.519 462.122 168.978 466.229 119.258C470.614 66.1604 474.444 23.5094 475.347 -0.192253Z" stroke="#171717" stroke-width="0.5"/>
<path d="M516.541 57.2497C503.506 -61.2253 621.415 -30.0549 646.133 34.4331C689.633 146.666 737.707 175.209 815.01 203.046C850.263 224.248 861.82 142.287 920.034 131.006C978.248 119.725 1002.89 198.64 1036.25 163.706C1088.34 110.756 1135.84 94.1022 1172.89 100.856C1208.52 104.429 1235.66 131.02 1247.71 168.127C1258.87 203.091 1256.59 247.235 1235.15 290.045C1186.58 348.685 1187.33 439.936 1160.72 480.783C1124.72 516.951 1171.04 553.712 1159.22 626.318C1147.39 698.925 1086.65 694.541 1102.42 745.227C1129.5 826.776 1134.72 882.665 1125.47 918.396C1111.33 1001.7 1027 988.922 956.971 926.782C914.039 890.703 880.387 857.823 849.656 836.147C814.829 799.822 769.62 875.8 725.526 877.839C651.449 878.996 661.665 797.526 599.611 835.002C572.662 850.664 543.496 868.5 511.525 889.115C433.849 934.901 378.069 937.365 342.437 921.281C266.456 913.254 240.023 828.576 257.439 747.987C268.251 700.52 293.726 654.649 332.789 625.602C389.045 583.741 466.945 553.98 490.907 476.521C508.44 430.389 399.227 370.396 426.581 287.666C443.495 232.133 501.923 204.196 505.536 160.497C509.36 114.214 514.117 77.3624 516.541 57.2497Z" stroke="#171717" stroke-width="0.5"/>
<path d="M559.214 113.926C550.785 19.2029 647.279 44.7724 667.815 98.1404C708.848 203.307 754.19 223.835 823.75 241.725C853.003 258.041 863.731 191.487 911.822 181.418C959.913 171.348 981.17 233.315 1009.02 205.499C1053.01 163.351 1092.78 151.555 1123.34 159.117C1152.27 162.983 1174.24 185.807 1183.35 217.006C1191.75 246.497 1188.59 283.297 1168.69 318.408C1118.01 369.411 1129.91 466.612 1109.14 505.723C1080.52 536.869 1116.08 567.46 1104.54 625.534C1093 683.608 1041.75 679.236 1052.26 717.613C1071.53 780.306 1074.02 822.612 1065.16 849.245C1052.74 914.517 983.197 902.916 924.557 852.801C887.602 823.458 857.537 797.488 829.696 782.387C800.335 754.362 762.48 816.059 725.291 819.072C663.885 821.547 670.146 757.679 618.789 788.206C595.522 801.347 570.693 815.815 543.824 832.178C476.528 868.401 430.028 864.977 402.545 847.018C342.04 839.156 321.417 770.223 336.108 704.694C345.514 665.563 366.879 627.847 399.334 603.809C451.035 565.482 516.727 539.082 536.455 467.93C550.627 428.724 462.689 378.106 484.043 309.368C497.044 262.306 543.278 237.238 546.372 199.977C549.611 160.953 555.273 130.256 559.214 113.926Z" stroke="#171717" stroke-width="0.5"/>
<path d="M601.849 167.911C598.029 96.2318 673.076 116.391 689.426 159.038C727.979 257.92 770.575 270.587 832.372 278.665C855.614 290.216 865.511 238.574 903.463 229.64C941.415 220.707 959.279 266.188 981.61 245.284C1017.49 213.622 1049.53 206.595 1073.58 215.022C1095.8 219.21 1112.6 238.438 1118.76 263.961C1124.39 288.199 1120.36 317.93 1102.01 345.603C1049.23 389.349 1072.28 493.222 1057.34 530.889C1036.11 557.245 1060.9 581.894 1049.65 625.869C1038.4 669.844 996.657 665.452 1001.91 691.806C1013.36 736.112 1013.13 765.151 1004.65 782.886C993.951 830.609 939.218 820.103 891.989 781.64C861.022 758.812 834.553 739.559 809.611 730.92C785.725 710.984 755.235 758.862 724.964 762.871C676.249 766.682 678.551 719.94 637.908 743.745L636.779 744.363C617.543 754.894 597.427 765.907 576.086 777.905C519.193 804.835 481.988 795.499 462.662 775.531C417.652 767.775 402.846 714.073 414.807 663.115C422.804 632.027 440.052 602.185 465.89 582.976C513.02 547.898 566.483 524.663 581.971 459.288C592.779 426.716 526.144 385.095 541.491 329.835C550.573 290.893 584.598 268.508 587.173 237.407C589.825 205.352 596.392 180.579 601.849 167.911Z" stroke="#171717" stroke-width="0.5"/>
<path d="M644.426 228.057C645.213 179.794 698.77 194.442 710.922 226.155C746.963 318.321 786.78 323.049 840.766 321.25C857.983 327.974 867.04 291.505 894.831 283.748C922.621 275.991 937.08 304.747 953.881 290.861C981.618 269.853 1005.91 267.639 1023.43 276.898C1038.93 281.391 1050.55 296.931 1053.76 316.655C1056.62 335.522 1051.73 358.038 1034.93 378.134C980.106 414.418 1014.27 524.549 1005.19 560.61C991.35 582.052 1005.36 600.636 994.409 630.285C983.46 659.934 951.247 655.54 951.235 669.724C954.866 695.4 951.917 711.008 943.834 719.742C934.864 749.663 894.971 740.298 859.183 713.685C834.226 697.489 811.372 685.054 789.348 682.933C770.952 671.196 747.848 705.01 724.513 710.003C688.519 715.137 686.866 685.77 656.961 702.732C641.086 710.975 624.958 718.868 608.324 726.907C561.872 744.403 533.986 729.175 522.826 707.275C493.336 699.657 484.355 661.459 493.577 625.329C500.159 602.439 513.28 580.622 532.484 566.338C575.007 534.665 616.206 514.701 627.443 455.394C634.881 429.613 589.586 397.191 598.919 355.683C604.079 325.048 625.877 305.448 627.931 280.657C629.995 255.725 637.459 237 644.426 228.057Z" stroke="#171717" stroke-width="0.5"/>
<path d="M689.231 285.165C694.559 260.302 726.32 269.442 734.196 290.226C767.369 375.654 804.01 372.453 849.702 360.791C860.785 362.692 868.916 341.388 886.373 334.809C903.831 328.23 914.771 340.272 925.931 333.401C945.333 323.037 961.706 325.631 972.596 335.718C981.301 340.514 987.674 352.366 987.939 366.292C988.03 379.789 982.337 395.092 967.263 407.616C911.004 436.436 955.77 552.783 952.564 587.227C946.181 603.754 949.392 616.278 938.858 631.61C928.324 646.941 905.868 642.548 900.663 644.572C896.535 651.636 890.931 653.827 883.323 653.57C876.16 665.702 851.349 657.481 827.243 642.709C808.489 633.141 789.451 627.518 770.545 631.908C757.77 628.362 742.206 648.122 725.972 654.094C702.926 660.549 697.385 648.542 678.405 658.666C666.358 664.434 654.707 669.012 643.312 672.86C607.671 680.93 589.285 659.823 586.309 636.001C572.46 628.524 569.326 605.82 575.745 584.51C580.86 569.816 589.764 556.018 602.211 546.656C639.725 518.395 668.371 501.704 675.291 448.476C679.321 429.485 655.584 406.26 658.878 378.499C660.11 356.17 669.601 339.357 671.118 320.875C672.58 303.065 680.85 290.384 689.231 285.165Z" stroke="#171717" stroke-width="0.5"/>
</g>
</g>
<defs>
<clipPath id="clip0_80_3916">
<rect width="1440" height="983" fill="white"/>
</clipPath>
</defs>
</svg>
