<svg width="21" height="20" viewBox="0 0 21 20" fill="none" xmlns="http://www.w3.org/2000/svg">
<path d="M14.666 17.7083H6.33268C3.29102 17.7083 1.54102 15.9583 1.54102 12.9166V7.08329C1.54102 4.04163 3.29102 2.29163 6.33268 2.29163H14.666C17.7077 2.29163 19.4577 4.04163 19.4577 7.08329V12.9166C19.4577 15.9583 17.7077 17.7083 14.666 17.7083ZM6.33268 3.54163C3.94935 3.54163 2.79102 4.69996 2.79102 7.08329V12.9166C2.79102 15.3 3.94935 16.4583 6.33268 16.4583H14.666C17.0493 16.4583 18.2077 15.3 18.2077 12.9166V7.08329C18.2077 4.69996 17.0493 3.54163 14.666 3.54163H6.33268Z" fill="#171717"/>
<path d="M10.499 10.725C9.799 10.725 9.09067 10.5083 8.549 10.0666L5.94067 7.98331C5.674 7.76664 5.624 7.37497 5.84067 7.10831C6.05734 6.84164 6.44901 6.79164 6.71567 7.00831L9.324 9.09164C9.95733 9.59998 11.0323 9.59998 11.6657 9.09164L14.274 7.00831C14.5407 6.79164 14.9407 6.83331 15.149 7.10831C15.3657 7.37497 15.324 7.77498 15.049 7.98331L12.4407 10.0666C11.9073 10.5083 11.199 10.725 10.499 10.725Z" fill="#171717"/>
</svg>
