<svg width="40" height="40" viewBox="0 0 40 40" fill="none" xmlns="http://www.w3.org/2000/svg">
<path fill-rule="evenodd" clip-rule="evenodd" d="M20 14.263C21.868 14.263 22.09 14.27 22.828 14.303C23.51 14.335 23.881 14.449 24.128 14.545C24.454 14.672 24.687 14.823 24.932 15.068C25.177 15.313 25.328 15.546 25.455 15.873C25.551 16.119 25.665 16.49 25.696 17.173C25.73 17.91 25.736 18.131 25.736 20C25.736 21.868 25.73 22.09 25.696 22.828C25.665 23.51 25.551 23.881 25.456 24.128C25.328 24.454 25.176 24.687 24.932 24.932C24.7061 25.1643 24.431 25.343 24.127 25.455C23.88 25.551 23.51 25.665 22.827 25.696C22.09 25.73 21.869 25.736 20 25.736C18.131 25.736 17.91 25.73 17.172 25.696C16.49 25.665 16.12 25.551 15.872 25.456C15.5682 25.3436 15.2934 25.1645 15.068 24.932C14.8357 24.7061 14.6569 24.431 14.545 24.127C14.449 23.88 14.335 23.51 14.304 22.827C14.27 22.09 14.264 21.868 14.264 20C14.264 18.131 14.27 17.91 14.304 17.172C14.335 16.49 14.449 16.12 14.544 15.872C14.672 15.546 14.824 15.313 15.068 15.068C15.313 14.823 15.546 14.672 15.873 14.545C16.119 14.449 16.49 14.335 17.173 14.304C17.91 14.27 18.131 14.264 20 14.264M20 13.001C18.1 13.001 17.861 13.009 17.115 13.043C16.37 13.078 15.86 13.197 15.416 13.37C14.9488 13.5456 14.5257 13.821 14.176 14.177C13.8203 14.5268 13.5453 14.95 13.37 15.417C13.197 15.86 13.078 16.37 13.044 17.114C13.01 17.86 13.002 18.099 13.002 20C13.002 21.9 13.01 22.139 13.044 22.885C13.078 23.63 13.197 24.139 13.37 24.584C13.548 25.044 13.788 25.434 14.177 25.824C14.566 26.212 14.956 26.452 15.417 26.63C15.861 26.803 16.37 26.922 17.115 26.956C17.861 26.99 18.099 26.998 20 26.998C21.9 26.998 22.139 26.99 22.885 26.956C23.63 26.922 24.139 26.803 24.584 26.63C25.0511 26.4544 25.4742 26.179 25.824 25.823C26.1796 25.4732 26.4547 25.05 26.63 24.583C26.803 24.139 26.922 23.63 26.956 22.885C26.99 22.139 26.998 21.9 26.998 20C26.998 18.1 26.99 17.861 26.956 17.115C26.922 16.37 26.803 15.861 26.63 15.416C26.4544 14.9489 26.179 14.5257 25.823 14.176C25.4731 13.8203 25.05 13.5453 24.583 13.37C24.14 13.197 23.63 13.078 22.886 13.044C22.14 13.01 21.9 13.002 20 13.002" fill="white"/>
<path fill-rule="evenodd" clip-rule="evenodd" d="M19.9992 16.407C19.0463 16.407 18.1324 16.7856 17.4586 17.4594C16.7848 18.1332 16.4062 19.0471 16.4062 20C16.4062 20.953 16.7848 21.8669 17.4586 22.5407C18.1324 23.2145 19.0463 23.593 19.9992 23.593C20.9522 23.593 21.8661 23.2145 22.5399 22.5407C23.2137 21.8669 23.5923 20.953 23.5923 20C23.5923 19.0471 23.2137 18.1332 22.5399 17.4594C21.8661 16.7856 20.9522 16.407 19.9992 16.407ZM19.9992 22.333C19.3805 22.333 18.7871 22.0873 18.3496 21.6497C17.912 21.2122 17.6662 20.6188 17.6662 20C17.6662 19.3813 17.912 18.7879 18.3496 18.3504C18.7871 17.9128 19.3805 17.667 19.9992 17.667C20.618 17.667 21.2114 17.9128 21.6489 18.3504C22.0865 18.7879 22.3323 19.3813 22.3323 20C22.3323 20.6188 22.0865 21.2122 21.6489 21.6497C21.2114 22.0873 20.618 22.333 19.9992 22.333ZM24.5742 16.265C24.5742 16.4878 24.4858 16.7015 24.3282 16.859C24.1707 17.0165 23.957 17.105 23.7342 17.105C23.5115 17.105 23.2978 17.0165 23.1403 16.859C22.9827 16.7015 22.8943 16.4878 22.8943 16.265C22.8943 16.0423 22.9827 15.8286 23.1403 15.6711C23.2978 15.5135 23.5115 15.425 23.7342 15.425C23.957 15.425 24.1707 15.5135 24.3282 15.6711C24.4858 15.8286 24.5742 16.0423 24.5742 16.265Z" fill="white"/>
<rect x="0.5" y="0.5" width="39" height="39" rx="19.5" stroke="#404040"/>
</svg>
