<svg width="20" height="20" viewBox="0 0 20 20" fill="none" xmlns="http://www.w3.org/2000/svg">
<path d="M10.0007 18.9583C5.63399 18.9583 2.08398 15.4083 2.08398 11.0417C2.08398 6.675 5.63399 3.125 10.0007 3.125C14.3673 3.125 17.9173 6.675 17.9173 11.0417C17.9173 15.4083 14.3673 18.9583 10.0007 18.9583ZM10.0007 4.375C6.32565 4.375 3.33398 7.36667 3.33398 11.0417C3.33398 14.7167 6.32565 17.7083 10.0007 17.7083C13.6757 17.7083 16.6673 14.7167 16.6673 11.0417C16.6673 7.36667 13.6757 4.375 10.0007 4.375Z" fill="#525252"/>
<path d="M10 11.4584C9.65833 11.4584 9.375 11.1751 9.375 10.8334V6.66675C9.375 6.32508 9.65833 6.04175 10 6.04175C10.3417 6.04175 10.625 6.32508 10.625 6.66675V10.8334C10.625 11.1751 10.3417 11.4584 10 11.4584Z" fill="#525252"/>
<path d="M12.5 2.29175H7.5C7.15833 2.29175 6.875 2.00841 6.875 1.66675C6.875 1.32508 7.15833 1.04175 7.5 1.04175H12.5C12.8417 1.04175 13.125 1.32508 13.125 1.66675C13.125 2.00841 12.8417 2.29175 12.5 2.29175Z" fill="#525252"/>
</svg>
